<svg width="179" height="40" viewBox="0 0 179 40" fill="none" xmlns="http://www.w3.org/2000/svg">
<g clip-path="url(#clip0_5267_622)">
<mask id="mask0_5267_622" style="mask-type:luminance" maskUnits="userSpaceOnUse" x="0" y="0" width="179" height="40">
<path d="M179 0H0V40H179V0Z" fill="white"/>
</mask>
<g mask="url(#mask0_5267_622)">
<path d="M16.1286 39.8999H13.0713V-0.100098L16.1286 2.44768V39.8999Z" fill="white"/>
<path d="M6.44702 39.8999H9.50434V7.65283L6.44702 10.2006V39.8999Z" fill="white"/>
<path d="M3.13496 39.8999H0.0776367V17.8439L3.13496 15.2961V39.8999Z" fill="white"/>
<path d="M29.1223 39.8999H26.0649V15.2961L29.1223 17.8439V39.8999Z" fill="white"/>
<path d="M19.6956 39.8999H22.7528V10.2006L19.6956 7.65283V39.8999Z" fill="white"/>
<path fill-rule="evenodd" clip-rule="evenodd" d="M62.3874 28.6268V27.2516H58.988V28.5658C58.988 31.4993 59.9374 34.12 64.0276 34.12C68.118 34.12 69.2068 31.1634 69.2068 28.0079C69.2068 24.2643 68.2018 22.8358 64.921 20.368C62.9946 18.9393 62.7013 18.076 62.7013 16.6014C62.7013 15.1269 62.9598 14.1566 64.0974 14.1566C65.2352 14.1566 65.4934 15.1193 65.4934 16.6473V17.7398H68.8438V16.548C68.8438 14.1337 68.132 11.2 64.1742 11.2C60.2166 11.2 59.344 14.1566 59.344 17.0828C59.344 20.3756 60.6074 21.598 62.9598 23.4774C65.312 25.357 65.8216 26.098 65.8216 28.4894C65.8216 29.9332 65.4446 31.2016 64.1602 31.2016C62.8759 31.2016 62.3874 30.277 62.3874 28.6268ZM42.6272 33.799L43.388 27.8549H46.7734L47.6388 33.799H51.1708L47.5062 11.5589H42.7318L39.2 33.799H42.6272ZM45.1329 14.8211C45.3842 17.3347 45.859 20.918 46.3614 24.6998H43.8348C43.9024 24.1866 43.9756 23.6376 44.0512 23.0694L44.0514 23.0688C44.4608 19.9987 44.9448 16.3683 45.0214 14.8211H45.1329ZM88.0598 33.799H85.4214C85.3254 33.2492 85.2648 32.6926 85.2398 32.1334C84.6326 33.6156 83.3552 34.1276 81.9452 34.1276C78.7204 34.1276 77.6804 31.7592 77.6804 28.0156V17.541C77.6804 13.912 79.0764 11.238 82.8806 11.238C87.4804 11.238 87.969 14.6684 87.969 17.0597V17.7779H84.5698V16.8917C84.5698 15.7151 84.4022 14.3628 82.8596 14.3628C81.6242 14.3628 81.1006 15.2261 81.1006 17.0062V28.3822C81.1006 30.1623 81.6101 31.0868 82.8318 31.0868C84.2976 31.0868 84.6536 29.8491 84.6536 27.5571V24.3102H82.755V21.361H88.0598V33.799ZM99.8565 33.799L100.624 27.8549H103.982L104.847 33.799H108.365L104.701 11.5588H99.9263L96.4364 33.799H99.8565ZM102.369 14.8211C102.621 17.3347 103.095 20.9178 103.598 24.6996H101.043C101.111 24.1864 101.184 23.6372 101.26 23.0688V23.0682L101.26 23.0678C101.669 19.9979 102.153 16.3681 102.23 14.8211H102.369ZM119.924 23.8592V33.7912H116.545V11.5588H121.222C124.558 11.5588 126.527 12.9188 126.527 16.9068V17.7549C126.527 21.17 125.131 22.041 124.3 22.3924C125.577 23.0036 126.303 23.9204 126.303 26.9764C126.248 29.2554 126.315 31.5362 126.506 33.8066H123.239C122.992 32.6522 123.005 29.7662 123.013 27.9618C123.015 27.6764 123.016 27.4182 123.016 27.198C123.016 24.4858 122.667 23.867 120.705 23.867L119.924 23.8592ZM119.924 21.0248H120.698C122.485 21.0248 123.141 20.3372 123.141 17.923V17.159C123.141 15.44 122.792 14.3933 120.88 14.3933H119.924V21.0248ZM140.285 11.5588H135.601V33.799H140.285C145.492 33.799 146.064 30.063 146.064 26.6631V18.1369C146.064 14.0036 144.933 11.5588 140.285 11.5588ZM140.096 30.8804H139.014V14.5079H140.075C142.309 14.5079 142.658 15.822 142.658 17.8618V27.1292C142.658 29.4288 142.323 30.8804 140.096 30.8804ZM158.558 11.5588V33.799H155.18V11.5588H158.558ZM170.27 33.799L171.038 27.8549H174.41L175.268 33.799H178.8L175.136 11.5588H170.361L166.829 33.799H170.27ZM173.828 23.3568C173.887 23.8006 173.946 24.2488 174.005 24.6996H171.464C171.506 24.3854 171.55 24.0576 171.596 23.7202C172.024 20.5306 172.569 16.4793 172.651 14.8211H172.776C172.998 17.035 173.398 20.0786 173.828 23.3568Z" fill="white"/>
</g>
</g>
<defs>
<clipPath id="clip0_5267_622">
<rect width="179" height="40" fill="white"/>
</clipPath>
</defs>
</svg>
