<svg width="144" height="40" viewBox="0 0 144 40" fill="none" xmlns="http://www.w3.org/2000/svg">
<g clip-path="url(#clip0_5267_643)">
<mask id="mask0_5267_643" style="mask-type:luminance" maskUnits="userSpaceOnUse" x="0" y="0" width="144" height="40">
<path d="M143.2 0H0V40H143.2V0Z" fill="white"/>
</mask>
<g mask="url(#mask0_5267_643)">
<path d="M21.1671 33.9495C23.7499 33.7309 26.2211 32.7999 28.3059 31.2599L32.1819 35.8599C29.2203 38.1345 25.6809 39.5345 21.9647 39.9015C18.2484 40.2685 14.5036 39.5875 11.1544 37.9361C7.80508 36.2845 4.98508 33.7283 3.01366 30.5567C1.04222 27.3851 -0.00189985 23.7251 -0.000486849 19.9907C0.000926153 16.2564 1.04781 12.5971 3.02164 9.42702C4.99548 6.25698 7.81742 3.70285 11.1679 2.05385C14.5185 0.40485 18.2637 -0.273164 21.9797 0.0965731C25.6957 0.46631 29.2339 1.86903 32.1939 4.14591L28.3159 8.74591C26.2325 7.20403 23.7621 6.27077 21.1795 6.05007C18.5971 5.82935 16.0041 6.32987 13.6893 7.49585C11.3745 8.66183 9.42886 10.4475 8.06902 12.654C6.70916 14.8605 5.98854 17.4011 5.98738 19.993C5.98624 22.5849 6.7046 25.1261 8.0625 27.3339C9.42038 29.5415 11.3645 31.3289 13.6782 32.4969C15.992 33.6651 18.5845 34.1679 21.1671 33.9495Z" fill="white"/>
<path d="M33.5579 34.6979L29.6819 30.0979H29.6879C31.0533 28.7939 32.1403 27.2265 32.8829 25.4905C33.6253 23.7545 34.0083 21.8861 34.0083 19.9979C34.0083 18.1097 33.6253 16.2412 32.8829 14.5052C32.1403 12.7693 31.0533 11.2019 29.6879 9.89785L33.5679 5.29785C35.5973 7.17139 37.2167 9.44497 38.3241 11.9754C39.4313 14.5057 40.0025 17.238 40.0015 20.0001C40.0007 22.7621 39.4277 25.4941 38.3187 28.0237C37.2097 30.5533 35.5887 32.8257 33.5579 34.6979Z" fill="white"/>
<path d="M113.293 1.19995V33.32H117.121V1.19995H113.293Z" fill="white"/>
<path fill-rule="evenodd" clip-rule="evenodd" d="M132.289 30.2838C128.197 30.2838 125.073 28.0398 124.325 24.0798H142.761C142.849 23.5078 142.893 22.9358 142.893 22.3638C142.893 16.2038 138.581 10.7478 131.937 10.7478C125.073 10.7478 120.409 15.8078 120.409 22.3198C120.409 28.9198 125.117 33.8918 132.201 33.8918C136.601 33.8918 139.945 31.9118 141.881 28.9198L138.625 27.0718C137.525 28.8758 135.325 30.2838 132.289 30.2838ZM124.325 20.7358C124.941 16.9078 127.801 14.3558 131.937 14.3558C135.237 14.3558 138.361 16.3798 139.021 20.7358H124.325Z" fill="white"/>
<path d="M100.934 33.8918C94.2898 33.8918 89.3618 28.8318 89.3618 22.3198C89.3618 15.8078 94.2898 10.7478 100.934 10.7478C105.29 10.7478 108.986 13.0358 110.658 16.5118L107.446 18.3598C106.346 16.0278 103.882 14.4878 100.934 14.4878C96.5338 14.4878 93.1898 17.8758 93.1898 22.3198C93.1898 26.7198 96.5338 30.1078 100.934 30.1078C103.926 30.1078 106.346 28.5678 107.578 26.2798L110.834 28.1718C108.986 31.6038 105.246 33.8918 100.934 33.8918Z" fill="white"/>
<path d="M89.3712 10.9238C86.5992 10.9238 83.9152 11.9358 82.5072 15.0158V11.3198H78.6792V33.3198H82.5072V21.6598C82.5072 16.4678 86.0712 14.7958 89.3712 14.9278V10.9238Z" fill="white"/>
<path d="M72.2674 7.31597C70.8154 7.31597 69.6714 6.17197 69.6714 4.76397C69.6714 3.35597 70.8154 2.16797 72.2674 2.16797C73.6754 2.16797 74.8194 3.35597 74.8194 4.76397C74.8194 6.17197 73.6754 7.31597 72.2674 7.31597Z" fill="white"/>
<path d="M70.3313 33.3198V11.3198H74.1593V33.3198H70.3313Z" fill="white"/>
<path d="M46.3999 22.3198C46.3999 28.8318 51.3279 33.8918 57.9719 33.8918C62.2839 33.8918 66.0239 31.6038 67.8719 28.1718L64.6159 26.2798C63.3839 28.5678 60.9639 30.1078 57.9719 30.1078C53.5719 30.1078 50.2279 26.7198 50.2279 22.3198C50.2279 17.8758 53.5719 14.4878 57.9719 14.4878C60.9199 14.4878 63.3839 16.0278 64.4839 18.3598L67.6959 16.5118C66.0239 13.0358 62.3279 10.7478 57.9719 10.7478C51.3279 10.7478 46.3999 15.8078 46.3999 22.3198Z" fill="white"/>
</g>
</g>
<defs>
<clipPath id="clip0_5267_643">
<rect width="143.2" height="40" fill="white"/>
</clipPath>
</defs>
</svg>
