<svg width="28" height="29" viewBox="0 0 28 29" fill="none" xmlns="http://www.w3.org/2000/svg">
<g id="ri:facebook-circle-line">
<path id="Vector" d="M15.1683 23.9399C17.5218 23.6404 19.673 22.456 21.1846 20.6275C22.6962 18.7989 23.4548 16.4633 23.3062 14.0955C23.1577 11.7277 22.1131 9.50528 20.3848 7.87998C18.6564 6.25469 16.3741 5.34848 14.0016 5.34554C11.6262 5.34377 9.33957 6.24777 7.60752 7.87333C5.87548 9.49889 4.82841 11.7237 4.67966 14.0944C4.53092 16.4651 5.29169 18.8034 6.80696 20.6327C8.32224 22.462 10.478 23.6447 12.835 23.9399V17.0122H10.5016V14.6789H12.835V12.7492C12.835 11.1894 12.9983 10.6235 13.3016 10.053C13.6007 9.48876 14.0624 9.02741 14.627 8.72887C15.0726 8.48971 15.6268 8.34621 16.5951 8.28437C16.9794 8.25948 17.4763 8.2906 18.0861 8.37771V10.5944H17.5028C16.433 10.5944 15.9908 10.6445 15.7271 10.7857C15.5699 10.8668 15.4419 10.9949 15.3608 11.152C15.2208 11.4157 15.1695 11.677 15.1695 12.748V14.6789H18.0861L17.5028 17.0122H15.1695L15.1683 23.9399ZM14.0016 26.3455C7.55813 26.3455 2.33496 21.1224 2.33496 14.6789C2.33496 8.23537 7.55813 3.01221 14.0016 3.01221C20.4451 3.01221 25.6683 8.23537 25.6683 14.6789C25.6683 21.1224 20.4451 26.3455 14.0016 26.3455Z" fill="#0E1011"/>
</g>
</svg>
