<svg width="28" height="29" viewBox="0 0 28 29" fill="none" xmlns="http://www.w3.org/2000/svg">
<g id="ri:instagram-line">
<path id="Vector" d="M14.0008 11.1789C13.0726 11.1789 12.1823 11.5476 11.526 12.204C10.8696 12.8604 10.5008 13.7506 10.5008 14.6789C10.5008 15.6071 10.8696 16.4974 11.526 17.1537C12.1823 17.8101 13.0726 18.1789 14.0008 18.1789C14.9291 18.1789 15.8193 17.8101 16.4757 17.1537C17.1321 16.4974 17.5008 15.6071 17.5008 14.6789C17.5008 13.7506 17.1321 12.8604 16.4757 12.204C15.8193 11.5476 14.9291 11.1789 14.0008 11.1789ZM14.0008 8.84554C15.5479 8.84554 17.0317 9.46012 18.1256 10.5541C19.2196 11.648 19.8342 13.1318 19.8342 14.6789C19.8342 16.226 19.2196 17.7097 18.1256 18.8037C17.0317 19.8976 15.5479 20.5122 14.0008 20.5122C12.4537 20.5122 10.97 19.8976 9.87605 18.8037C8.78209 17.7097 8.16751 16.226 8.16751 14.6789C8.16751 13.1318 8.78209 11.648 9.87605 10.5541C10.97 9.46012 12.4537 8.84554 14.0008 8.84554ZM21.5842 8.55387C21.5842 8.94065 21.4305 9.31158 21.157 9.58507C20.8835 9.85856 20.5126 10.0122 20.1258 10.0122C19.7391 10.0122 19.3681 9.85856 19.0946 9.58507C18.8212 9.31158 18.6675 8.94065 18.6675 8.55387C18.6675 8.1671 18.8212 7.79617 19.0946 7.52268C19.3681 7.24919 19.7391 7.09554 20.1258 7.09554C20.5126 7.09554 20.8835 7.24919 21.157 7.52268C21.4305 7.79617 21.5842 8.1671 21.5842 8.55387ZM14.0008 5.34554C11.1145 5.34554 10.6432 5.35371 9.30034 5.41321C8.38567 5.45637 7.77201 5.57887 7.20267 5.80054C6.72648 5.97597 6.29585 6.25628 5.94267 6.62071C5.57783 6.97376 5.29711 7.4044 5.12134 7.88071C4.89967 8.45237 4.77717 9.06487 4.73517 9.97837C4.67451 11.2664 4.66634 11.7167 4.66634 14.6789C4.66634 17.5664 4.67451 18.0365 4.73401 19.3794C4.77717 20.2929 4.89967 20.9077 5.12017 21.4759C5.31851 21.9834 5.55184 22.3485 5.93917 22.7359C6.33234 23.1279 6.69751 23.3624 7.19917 23.556C7.77551 23.7789 8.38917 23.9025 9.29917 23.9445C10.5872 24.0052 11.0375 24.0122 13.9997 24.0122C16.8872 24.0122 17.3573 24.004 18.7002 23.9445C19.6125 23.9014 20.2262 23.7789 20.7967 23.5584C21.2729 23.3829 21.7035 23.1026 22.0567 22.7382C22.4498 22.3462 22.6843 21.981 22.878 21.4782C23.0997 20.9042 23.2233 20.2905 23.2653 19.3782C23.326 18.0914 23.333 17.6399 23.333 14.6789C23.333 11.7925 23.3248 11.3212 23.2653 9.97837C23.2222 9.06604 23.0985 8.45004 22.878 7.88071C22.7026 7.40451 22.4223 6.97388 22.0578 6.62071C21.7048 6.25586 21.2741 5.97515 20.7978 5.79937C20.2262 5.57771 19.6125 5.45521 18.7002 5.41321C17.4133 5.35254 16.963 5.34554 13.9997 5.34554M13.9997 3.01221C17.1695 3.01221 17.565 3.02387 18.8098 3.08221C20.0512 3.14054 20.8982 3.33537 21.6413 3.62471C22.4113 3.92104 23.06 4.32237 23.7087 4.96987C24.3022 5.55289 24.7612 6.25842 25.0538 7.03721C25.342 7.78037 25.538 8.62737 25.5963 9.86987C25.6512 11.1135 25.6663 11.509 25.6663 14.6789C25.6663 17.8487 25.6547 18.2442 25.5963 19.4879C25.538 20.7315 25.342 21.5762 25.0538 22.3205C24.7612 23.0993 24.3022 23.8049 23.7087 24.3879C23.1257 24.9813 22.4201 25.4404 21.6413 25.733C20.8982 26.0212 20.0512 26.2172 18.8098 26.2755C17.565 26.3304 17.1695 26.3455 13.9997 26.3455C10.8298 26.3455 10.4343 26.3339 9.18951 26.2755C7.94817 26.2172 7.10234 26.0212 6.35801 25.733C5.57923 25.4404 4.8737 24.9813 4.29067 24.3879C3.6972 23.8049 3.23813 23.0993 2.94551 22.3205C2.65617 21.5774 2.46134 20.7304 2.40301 19.4879C2.34701 18.2442 2.33301 17.8487 2.33301 14.6789C2.33301 11.509 2.34467 11.1135 2.40301 9.86987C2.46134 8.62621 2.65617 7.78154 2.94551 7.03721C3.23813 6.25842 3.6972 5.55289 4.29067 4.96987C4.8737 4.3764 5.57923 3.91733 6.35801 3.62471C7.10117 3.33537 7.94701 3.14054 9.18951 3.08221C10.4355 3.02737 10.831 3.01221 14.0008 3.01221" fill="#0E1011"/>
</g>
</svg>
