<svg width="28" height="29" viewBox="0 0 28 29" fill="none" xmlns="http://www.w3.org/2000/svg">
<g id="ri:twitter-fill">
<path id="Vector" d="M25.9153 7.27729C25.0245 7.671 24.08 7.92974 23.113 8.04496C24.1312 7.43455 24.8932 6.47523 25.2573 5.34529C24.3006 5.91463 23.2518 6.31363 22.1598 6.52946C21.4255 5.7438 20.4522 5.22275 19.3913 5.04731C18.3303 4.87187 17.2411 5.05186 16.293 5.55932C15.3448 6.06678 14.5909 6.87326 14.1484 7.85338C13.706 8.83351 13.5997 9.93237 13.8461 10.9791C11.9058 10.8823 10.0076 10.3784 8.27481 9.50003C6.542 8.62166 5.01339 7.38854 3.78831 5.88079C3.35476 6.62569 3.12687 7.4724 3.12798 8.33429C3.12798 10.026 3.99015 11.5205 5.29798 12.3955C4.52354 12.3696 3.76626 12.1605 3.08831 11.7853V11.8448C3.08828 12.9716 3.47802 14.0638 4.19143 14.9361C4.90485 15.8083 5.89801 16.407 7.00248 16.6305C6.28343 16.8257 5.52931 16.8545 4.79748 16.7145C5.10889 17.6844 5.7159 18.5327 6.53348 19.1404C7.35106 19.7482 8.33826 20.085 9.35681 20.1036C8.34437 20.8983 7.1853 21.4858 5.9458 21.8325C4.7063 22.1792 3.41064 22.2784 2.13281 22.1243C4.36313 23.5586 6.95943 24.3201 9.61115 24.3176C18.5875 24.3176 23.4945 16.8825 23.4945 10.4343C23.4945 10.2235 23.4898 10.0131 23.4805 9.80313C24.4352 9.11282 25.2593 8.2579 25.9141 7.27846" fill="#0E1011"/>
</g>
</svg>
